<?xml version="1.0" encoding="utf-8"?><svg xmlns="http://www.w3.org/2000/svg" xmlns:xlink="http://www.w3.org/1999/xlink" width="1635" height="795" preserveAspectRatio="xMidYMid" viewBox="0 0 1635 795" style="z-index:1;margin-right:-1.74545px;display:block;background-color:rgb(153, 204, 255);animation-play-state:paused" ><g transform="translate(817.5,397.5) scale(1,1) translate(-817.5,-397.5)" style="transform:matrix(1, 0, 0, 1, 0, 0);animation-play-state:paused" ><defs style="animation-play-state:paused" ><linearGradient id="lg-0.8670835192249271" x1="0" x2="0" y1="0" y2="1" style="animation-play-state:paused" ><stop stop-color="#3184ce" offset="0" style="animation-play-state:paused" ></stop>

  
<stop stop-color="#e9f6ff" offset="1" style="animation-play-state:paused" ></stop></linearGradient></defs>


<rect x="0" y="0" width="1635" height="795" fill="url(#lg-0.8670835192249271)" style="animation-play-state:paused" ></rect>
<circle cx="0" cy="407.1325061967551" r="56.55624483603742" fill="#91cbf0" transform="matrix(1,0,0,1,0,0)" style="transform:matrix(1, 0, 0, 1, 0, 0);animation-play-state:paused" ></circle>
<circle cx="56.55624483603742" cy="430.04656197503397" r="40.245457626377856" fill="#91cbf0" transform="matrix(1,0,0,1,-0.005429744720458984,0)" style="transform:matrix(1, 0, 0, 1, -0.00542974, 0);animation-play-state:paused" ></circle>
<circle cx="96.80170246241528" cy="398.62692450482007" r="72.19270235389725" fill="#91cbf0" transform="matrix(1,0,0,1,-0.022117653861641884,0)" style="transform:matrix(1, 0, 0, 1, -0.0221177, 0);animation-play-state:paused" ></circle>
<circle cx="168.9944048163125" cy="420.8737490280951" r="56.85919866915857" fill="#91cbf0" transform="matrix(1,0,0,1,-0.05069183558225632,0)" style="transform:matrix(1, 0, 0, 1, -0.0506918, 0);animation-play-state:paused" ></circle>
<circle cx="225.85360348547107" cy="416.9330272221021" r="66.86109378504686" fill="#91cbf0" transform="matrix(1,0,0,1,-0.09182170033454895,0)" style="transform:matrix(1, 0, 0, 1, -0.0918217, 0);animation-play-state:paused" ></circle>
<circle cx="292.71469727051795" cy="448.5072314809274" r="34.39158539644119" fill="#91cbf0" transform="matrix(1,0,0,1,-0.14621886610984802,0)" style="transform:matrix(1, 0, 0, 1, -0.146219, 0);animation-play-state:paused" ></circle>
<circle cx="327.10628266695915" cy="413.96487612250934" r="84.7893777425827" fill="#91cbf0" transform="matrix(1,0,0,1,-0.21463720500469208,0)" style="transform:matrix(1, 0, 0, 1, -0.214637, 0);animation-play-state:paused" ></circle>
<circle cx="411.89566040954185" cy="420.5976619475133" r="91.37375807092684" fill="#91cbf0" transform="matrix(1,0,0,1,-0.2978716492652893,0)" style="transform:matrix(1, 0, 0, 1, -0.297872, 0);animation-play-state:paused" ></circle>
<circle cx="503.2694184804687" cy="445.042234004603" r="64.94825546792191" fill="#91cbf0" transform="matrix(1,0,0,1,-0.3967548906803131,0)" style="transform:matrix(1, 0, 0, 1, -0.396755, 0);animation-play-state:paused" ></circle>
<circle cx="568.2176739483906" cy="442.9540360153287" r="87.57665780139406" fill="#91cbf0" transform="matrix(1,0,0,1,-0.5121519565582275,0)" style="transform:matrix(1, 0, 0, 1, -0.512152, 0);animation-play-state:paused" ></circle>
<circle cx="655.7943317497846" cy="452.7749425364026" r="93.6319707336887" fill="#91cbf0" transform="matrix(1,0,0,1,-0.6449503302574158,0)" style="transform:matrix(1, 0, 0, 1, -0.64495, 0);animation-play-state:paused" ></circle>
<circle cx="749.4263024834734" cy="467.42307202090257" r="75.82638190773986" fill="#91cbf0" transform="matrix(1,0,0,1,-0.7960466146469116,0)" style="transform:matrix(1, 0, 0, 1, -0.796047, 0);animation-play-state:paused" ></circle>
<circle cx="825.2526843912133" cy="474.07068548875327" r="81.66145799826229" fill="#91cbf0" transform="matrix(1,0,0,1,-0.9663257002830505,0)" style="transform:matrix(1, 0, 0, 1, -0.966326, 0);animation-play-state:paused" ></circle>
<circle cx="906.9141423894756" cy="465.58702384687587" r="71.71784946930943" fill="#91cbf0" transform="matrix(1,0,0,1,-1.156632423400879,0)" style="transform:matrix(1, 0, 0, 1, -1.15663, 0);animation-play-state:paused" ></circle>
<circle cx="978.631991858785" cy="465.75816503128044" r="39.073557024963634" fill="#91cbf0" transform="matrix(1,0,0,1,-1.3677335977554321,0)" style="transform:matrix(1, 0, 0, 1, -1.36773, 0);animation-play-state:paused" ></circle>
<circle cx="1017.7055488837486" cy="457.3352563463579" r="60.10875663107335" fill="#91cbf0" transform="matrix(1,0,0,1,-1.600266933441162,0)" style="transform:matrix(1, 0, 0, 1, -1.60027, 0);animation-play-state:paused" ></circle>
<circle cx="1077.814305514822" cy="445.2339448922859" r="77.89861952467928" fill="#91cbf0" transform="matrix(1,0,0,1,-1.8546782732009888,0)" style="transform:matrix(1, 0, 0, 1, -1.85468, 0);animation-play-state:paused" ></circle>
<circle cx="1155.7129250395014" cy="429.3286529017454" r="91.99413418943723" fill="#91cbf0" transform="matrix(1,0,0,1,-2.131143569946289,0)" style="transform:matrix(1, 0, 0, 1, -2.13114, 0);animation-play-state:paused" ></circle>
<circle cx="1247.7070592289388" cy="443.4308738073748" r="49.99096773835382" fill="#91cbf0" transform="matrix(1,0,0,1,-2.4294803142547607,0)" style="transform:matrix(1, 0, 0, 1, -2.42948, 0);animation-play-state:paused" ></circle>
<circle cx="1297.6980269672927" cy="419.3156883125085" r="78.99852812116494" fill="#91cbf0" transform="matrix(1,0,0,1,-2.749046802520752,0)" style="transform:matrix(1, 0, 0, 1, -2.74905, 0);animation-play-state:paused" ></circle>
<circle cx="1376.6965550884577" cy="420.04493633031285" r="66.94987081787751" fill="#91cbf0" transform="matrix(1,0,0,1,-3.0886495113372803,0)" style="transform:matrix(1, 0, 0, 1, -3.08865, 0);animation-play-state:paused" ></circle>
<circle cx="1443.6464259063353" cy="395.6390293470803" r="86.34507683892622" fill="#91cbf0" transform="matrix(1,0,0,1,-3.446460723876953,0)" style="transform:matrix(1, 0, 0, 1, -3.44646, 0);animation-play-state:paused" ></circle>
<circle cx="1529.9915027452614" cy="404.8009468389805" r="67.12094780313868" fill="#91cbf0" transform="matrix(1,0,0,1,-3.819972276687622,0)" style="transform:matrix(1, 0, 0, 1, -3.81997, 0);animation-play-state:paused" ></circle>
<circle cx="1597.1124505484001" cy="372.32667345077954" r="89.71919786870313" fill="#91cbf0" transform="matrix(1,0,0,1,-4.205999374389648,0)" style="transform:matrix(1, 0, 0, 1, -4.206, 0);animation-play-state:paused" ></circle>
<circle cx="1686.8316484171032" cy="429.9808354203334" r="35.279177889981554" fill="#91cbf0" transform="matrix(1,0,0,1,-4.60075569152832,0)" style="transform:matrix(1, 0, 0, 1, -4.60076, 0);animation-play-state:paused" ></circle>
<circle cx="1722.1108263070848" cy="429.972167384503" r="33.90984285975607" fill="#91cbf0" transform="matrix(1,0,0,1,-5,0)" style="transform:matrix(1, 0, 0, 1, -5, 0);animation-play-state:paused" ></circle>
<circle cx="0" cy="474.25011618132356" r="53.958236515563684" fill="#acd2f5" transform="matrix(1,0,0,1,0,0)" style="transform:matrix(1, 0, 0, 1, 0, 0);animation-play-state:paused" ></circle>
<circle cx="53.958236515563684" cy="495.9236149755276" r="38.4337683953289" fill="#acd2f5" transform="matrix(1,0,0,1,-0.022117653861641884,0)" style="transform:matrix(1, 0, 0, 1, -0.0221177, 0);animation-play-state:paused" ></circle>
<circle cx="92.39200491089258" cy="452.03758677236306" r="81.70251109153382" fill="#acd2f5" transform="matrix(1,0,0,1,-0.09182170033454895,0)" style="transform:matrix(1, 0, 0, 1, -0.0918217, 0);animation-play-state:paused" ></circle>
<circle cx="174.09451600242642" cy="479.4847647587465" r="63.015866380549625" fill="#acd2f5" transform="matrix(1,0,0,1,-0.21463720500469208,0)" style="transform:matrix(1, 0, 0, 1, -0.214637, 0);animation-play-state:paused" ></circle>
<circle cx="237.11038238297604" cy="499.11984848464954" r="46.8105431165032" fill="#acd2f5" transform="matrix(1,0,0,1,-0.3967548906803131,0)" style="transform:matrix(1, 0, 0, 1, -0.396755, 0);animation-play-state:paused" ></circle>
<circle cx="283.92092549947927" cy="468.59770298534204" r="89.88651754406264" fill="#acd2f5" transform="matrix(1,0,0,1,-0.6449503302574158,0)" style="transform:matrix(1, 0, 0, 1, -0.64495, 0);animation-play-state:paused" ></circle>
<circle cx="373.8074430435419" cy="510.9810902093684" r="43.020514984074794" fill="#acd2f5" transform="matrix(1,0,0,1,-0.9663257002830505,0)" style="transform:matrix(1, 0, 0, 1, -0.966326, 0);animation-play-state:paused" ></circle>
<circle cx="416.8279580276167" cy="510.4586389455235" r="48.52797345840847" fill="#acd2f5" transform="matrix(1,0,0,1,-1.3677335977554321,0)" style="transform:matrix(1, 0, 0, 1, -1.36773, 0);animation-play-state:paused" ></circle>
<circle cx="465.35593148602516" cy="494.72420071530604" r="85.65496613355779" fill="#acd2f5" transform="matrix(1,0,0,1,-1.8546782732009888,0)" style="transform:matrix(1, 0, 0, 1, -1.85468, 0);animation-play-state:paused" ></circle>
<circle cx="551.0108976195829" cy="506.40974991962975" r="83.31338005543813" fill="#acd2f5" transform="matrix(1,0,0,1,-2.4294803142547607,0)" style="transform:matrix(1, 0, 0, 1, -2.42948, 0);animation-play-state:paused" ></circle>
<circle cx="634.324277675021" cy="517.6450296015731" r="79.42140693796742" fill="#acd2f5" transform="matrix(1,0,0,1,-3.0886495113372803,0)" style="transform:matrix(1, 0, 0, 1, -3.08865, 0);animation-play-state:paused" ></circle>
<circle cx="713.7456846129884" cy="524.6683930958992" r="94.10121561691571" fill="#acd2f5" transform="matrix(1,0,0,1,-3.819972276687622,0)" style="transform:matrix(1, 0, 0, 1, -3.81997, 0);animation-play-state:paused" ></circle>
<circle cx="807.8469002299041" cy="538.2341289706071" r="54.049958168897646" fill="#acd2f5" transform="matrix(1,0,0,1,-4.60075569152832,0)" style="transform:matrix(1, 0, 0, 1, -4.60076, 0);animation-play-state:paused" ></circle>
<circle cx="861.8968583988018" cy="534.8737738640846" r="63.31510058306806" fill="#acd2f5" transform="matrix(1,0,0,1,-5.399243354797363,0)" style="transform:matrix(1, 0, 0, 1, -5.39924, 0);animation-play-state:paused" ></circle>
<circle cx="925.2119589818699" cy="524.5390490166748" r="91.46173693720024" fill="#acd2f5" transform="matrix(1,0,0,1,-6.180027961730957,0)" style="transform:matrix(1, 0, 0, 1, -6.18003, 0);animation-play-state:paused" ></circle>
<circle cx="1016.6736959190702" cy="528.9985471894438" r="34.208782920611796" fill="#acd2f5" transform="matrix(1,0,0,1,-6.911351203918457,0)" style="transform:matrix(1, 0, 0, 1, -6.91135, 0);animation-play-state:paused" ></circle>
<circle cx="1050.8824788396819" cy="528.0001003159877" r="32.109015625294845" fill="#acd2f5" transform="matrix(1,0,0,1,-7.57051944732666,0)" style="transform:matrix(1, 0, 0, 1, -7.57052, 0);animation-play-state:paused" ></circle>
<circle cx="1082.9914944649768" cy="503.88117373572805" r="90.11475279367704" fill="#acd2f5" transform="matrix(1,0,0,1,-8.1453218460083,0)" style="transform:matrix(1, 0, 0, 1, -8.14532, 0);animation-play-state:paused" ></circle>
<circle cx="1173.1062472586539" cy="517.7110054777205" r="40.78423152041508" fill="#acd2f5" transform="matrix(1,0,0,1,-8.632266998291016,0)" style="transform:matrix(1, 0, 0, 1, -8.63227, 0);animation-play-state:paused" ></circle>
<circle cx="1213.8904787790689" cy="519.7574957412482" r="33.07081458326611" fill="#acd2f5" transform="matrix(1,0,0,1,-9.033674240112305,0)" style="transform:matrix(1, 0, 0, 1, -9.03367, 0);animation-play-state:paused" ></circle>
<circle cx="1246.961293362335" cy="490.6689412815409" r="76.66705768561795" fill="#acd2f5" transform="matrix(1,0,0,1,-9.355050086975098,0)" style="transform:matrix(1, 0, 0, 1, -9.35505, 0);animation-play-state:paused" ></circle>
<circle cx="1323.628351047953" cy="506.1461211473524" r="44.221401393587655" fill="#acd2f5" transform="matrix(1,0,0,1,-9.60324478149414,0)" style="transform:matrix(1, 0, 0, 1, -9.60324, 0);animation-play-state:paused" ></circle>
<circle cx="1367.8497524415407" cy="479.66936095666773" r="73.44238399119388" fill="#acd2f5" transform="matrix(1,0,0,1,-9.785362243652344,0)" style="transform:matrix(1, 0, 0, 1, -9.78536, 0);animation-play-state:paused" ></circle>
<circle cx="1441.2921364327344" cy="477.22349570966827" r="67.46677473117951" fill="#acd2f5" transform="matrix(1,0,0,1,-9.908178329467773,0)" style="transform:matrix(1, 0, 0, 1, -9.90818, 0);animation-play-state:paused" ></circle>
<circle cx="1508.758911163914" cy="451.13857653401436" r="86.58925587725193" fill="#acd2f5" transform="matrix(1,0,0,1,-9.977882385253906,0)" style="transform:matrix(1, 0, 0, 1, -9.97788, 0);animation-play-state:paused" ></circle>
<circle cx="1595.3481670411659" cy="488.4954953987544" r="44.23253176834665" fill="#acd2f5" transform="matrix(1,0,0,1,-10,0)" style="transform:matrix(1, 0, 0, 1, -10, 0);animation-play-state:paused" ></circle>
<circle cx="1639.5806988095126" cy="488.0722406545789" r="42.20332152830086" fill="#acd2f5" transform="matrix(1,0,0,1,-9.977882385253906,0)" style="transform:matrix(1, 0, 0, 1, -9.97788, 0);animation-play-state:paused" ></circle>
<circle cx="0" cy="557.3793564372445" r="38.017202968962934" fill="#c3d9f9" transform="matrix(1,0,0,1,0,0)" style="transform:matrix(1, 0, 0, 1, 0, 0);animation-play-state:paused" ></circle>
<circle cx="38.017202968962934" cy="509.30796017232666" r="81.88468350515889" fill="#c3d9f9" transform="matrix(1,0,0,1,-0.05069185048341751,0)" style="transform:matrix(1, 0, 0, 1, -0.0506918, 0);animation-play-state:paused" ></circle>
<circle cx="119.90188647412182" cy="511.44138886351215" r="89.41294798157236" fill="#c3d9f9" transform="matrix(1,0,0,1,-0.21463724970817566,0)" style="transform:matrix(1, 0, 0, 1, -0.214637, 0);animation-play-state:paused" ></circle>
<circle cx="209.31483445569418" cy="541.8824618460144" r="68.45994480996518" fill="#c3d9f9" transform="matrix(1,0,0,1,-0.5121520161628723,0)" style="transform:matrix(1, 0, 0, 1, -0.512152, 0);animation-play-state:paused" ></circle>
<circle cx="277.7747792656594" cy="537.3450826670439" r="82.87071034446191" fill="#c3d9f9" transform="matrix(1,0,0,1,-0.9663259983062744,0)" style="transform:matrix(1, 0, 0, 1, -0.966326, 0);animation-play-state:paused" ></circle>
<circle cx="360.64548961012133" cy="551.8499037219043" r="76.27374207100458" fill="#c3d9f9" transform="matrix(1,0,0,1,-1.6002674102783203,0)" style="transform:matrix(1, 0, 0, 1, -1.60027, 0);animation-play-state:paused" ></circle>
<circle cx="436.9192316811259" cy="568.1140361580855" r="62.44683085875644" fill="#c3d9f9" transform="matrix(1,0,0,1,-2.429480791091919,0)" style="transform:matrix(1, 0, 0, 1, -2.42948, 0);animation-play-state:paused" ></circle>
<circle cx="499.36606253988236" cy="559.3723743088758" r="93.42392150728749" fill="#c3d9f9" transform="matrix(1,0,0,1,-3.4464619159698486,0)" style="transform:matrix(1, 0, 0, 1, -3.44646, 0);animation-play-state:paused" ></circle>
<circle cx="592.7899840471698" cy="579.221007244195" r="72.09041727046412" fill="#c3d9f9" transform="matrix(1,0,0,1,-4.600757122039795,0)" style="transform:matrix(1, 0, 0, 1, -4.60076, 0);animation-play-state:paused" ></circle>
<circle cx="664.8804013176339" cy="595.1813197945673" r="34.90034003454923" fill="#c3d9f9" transform="matrix(1,0,0,1,-5.794002532958984,0)" style="transform:matrix(1, 0, 0, 1, -5.794, 0);animation-play-state:paused" ></circle>
<circle cx="699.7807413521831" cy="590.0612398316748" r="74.87755585551304" fill="#c3d9f9" transform="matrix(1,0,0,1,-6.911351680755615,0)" style="transform:matrix(1, 0, 0, 1, -6.91135, 0);animation-play-state:paused" ></circle>
<circle cx="774.6582972076961" cy="597.7681848381875" r="83.19403400616113" fill="#c3d9f9" transform="matrix(1,0,0,1,-7.868857383728027,0)" style="transform:matrix(1, 0, 0, 1, -7.86886, 0);animation-play-state:paused" ></circle>
<circle cx="857.8523312138573" cy="599.4936261213583" r="59.196510659199404" fill="#c3d9f9" transform="matrix(1,0,0,1,-8.632266998291016,0)" style="transform:matrix(1, 0, 0, 1, -8.63227, 0);animation-play-state:paused" ></circle>
<circle cx="917.0488418730566" cy="592.137833847153" r="74.33387021280612" fill="#c3d9f9" transform="matrix(1,0,0,1,-9.203954696655273,0)" style="transform:matrix(1, 0, 0, 1, -9.20395, 0);animation-play-state:paused" ></circle>
<circle cx="991.3827120858627" cy="587.729520966616" r="59.82776388003353" fill="#c3d9f9" transform="matrix(1,0,0,1,-9.603245735168457,0)" style="transform:matrix(1, 0, 0, 1, -9.60325, 0);animation-play-state:paused" ></circle>
<circle cx="1051.2104759658962" cy="581.388016175718" r="62.99744981239344" fill="#c3d9f9" transform="matrix(1,0,0,1,-9.853781700134277,0)" style="transform:matrix(1, 0, 0, 1, -9.85378, 0);animation-play-state:paused" ></circle>
<circle cx="1114.2079257782896" cy="577.9006608147688" r="57.62881047106136" fill="#c3d9f9" transform="matrix(1,0,0,1,-9.977882385253906,0)" style="transform:matrix(1, 0, 0, 1, -9.97788, 0);animation-play-state:paused" ></circle>
<circle cx="1171.836736249351" cy="583.5699794188591" r="37.35627770637764" fill="#c3d9f9" transform="matrix(1,0,0,1,-9.994569778442383,0)" style="transform:matrix(1, 0, 0, 1, -9.99457, 0);animation-play-state:paused" ></circle>
<circle cx="1209.1930139557285" cy="559.1829201951361" r="76.20862398234499" fill="#c3d9f9" transform="matrix(1,0,0,1,-9.908178329467773,0)" style="transform:matrix(1, 0, 0, 1, -9.90818, 0);animation-play-state:paused" ></circle>
<circle cx="1285.4016379380735" cy="580.2461384573293" r="33.128903425629744" fill="#c3d9f9" transform="matrix(1,0,0,1,-9.702127456665039,0)" style="transform:matrix(1, 0, 0, 1, -9.70213, 0);animation-play-state:paused" ></circle>
<circle cx="1318.5305413637032" cy="549.8443684783509" r="72.27558199458451" fill="#c3d9f9" transform="matrix(1,0,0,1,-9.355048179626465,0)" style="transform:matrix(1, 0, 0, 1, -9.35505, 0);animation-play-state:paused" ></circle>
<circle cx="1390.8061233582876" cy="536.191403998663" r="79.3875281835552" fill="#c3d9f9" transform="matrix(1,0,0,1,-8.843366622924805,0)" style="transform:matrix(1, 0, 0, 1, -8.84337, 0);animation-play-state:paused" ></circle>
<circle cx="1470.1936515418427" cy="570.422799441675" r="34.00250305473688" fill="#c3d9f9" transform="matrix(1,0,0,1,-8.145318984985352,0)" style="transform:matrix(1, 0, 0, 1, -8.14532, 0);animation-play-state:paused" ></circle>
<circle cx="1504.1961545965796" cy="527.0713663408224" r="75.32644727085012" fill="#c3d9f9" transform="matrix(1,0,0,1,-7.250951766967773,0)" style="transform:matrix(1, 0, 0, 1, -7.25095, 0);animation-play-state:paused" ></circle>
<circle cx="1579.5226018674298" cy="529.6342615479281" r="65.58914289155055" fill="#c3d9f9" transform="matrix(1,0,0,1,-6.180024147033691,0)" style="transform:matrix(1, 0, 0, 1, -6.18002, 0);animation-play-state:paused" ></circle>
<circle cx="1645.1117447589804" cy="503.3035424375436" r="82.06530676314019" fill="#c3d9f9" transform="matrix(1,0,0,1,-4.999997615814209,0)" style="transform:matrix(1, 0, 0, 1, -5, 0);animation-play-state:paused" ></circle>
<circle cx="0" cy="594.3175844238116" r="60.56867964682367" fill="#d7e1fb" transform="matrix(1,0,0,1,0,0)" style="transform:matrix(1, 0, 0, 1, 0, 0);animation-play-state:paused" ></circle>
<circle cx="60.56867964682367" cy="621.1437928792878" r="41.271301980751886" fill="#d7e1fb" transform="matrix(1,0,0,1,-0.09182170033454895,0)" style="transform:matrix(1, 0, 0, 1, -0.0918217, 0);animation-play-state:paused" ></circle>
<circle cx="101.83998162757555" cy="609.0438311693506" r="55.16954839208775" fill="#d7e1fb" transform="matrix(1,0,0,1,-0.3967548906803131,0)" style="transform:matrix(1, 0, 0, 1, -0.396755, 0);animation-play-state:paused" ></circle>
<circle cx="157.00953001966332" cy="581.0163601605664" r="88.68614658794093" fill="#d7e1fb" transform="matrix(1,0,0,1,-0.9663257002830505,0)" style="transform:matrix(1, 0, 0, 1, -0.966326, 0);animation-play-state:paused" ></circle>
<circle cx="245.69567660760424" cy="603.3627355019996" r="75.81769613433343" fill="#d7e1fb" transform="matrix(1,0,0,1,-1.8546782732009888,0)" style="transform:matrix(1, 0, 0, 1, -1.85468, 0);animation-play-state:paused" ></circle>
<circle cx="321.5133727419377" cy="636.8545047878968" r="41.40558935384391" fill="#d7e1fb" transform="matrix(1,0,0,1,-3.0886495113372803,0)" style="transform:matrix(1, 0, 0, 1, -3.08865, 0);animation-play-state:paused" ></circle>
<circle cx="362.9189620957816" cy="636.1795896371376" r="46.18847424103066" fill="#d7e1fb" transform="matrix(1,0,0,1,-4.60075569152832,0)" style="transform:matrix(1, 0, 0, 1, -4.60076, 0);animation-play-state:paused" ></circle>
<circle cx="409.10743633681227" cy="640.318096757697" r="44.50875995580067" fill="#d7e1fb" transform="matrix(1,0,0,1,-6.180027961730957,0)" style="transform:matrix(1, 0, 0, 1, -6.18003, 0);animation-play-state:paused" ></circle>
<circle cx="453.6161962926129" cy="642.1753848516686" r="46.47574005079977" fill="#d7e1fb" transform="matrix(1,0,0,1,-7.57051944732666,0)" style="transform:matrix(1, 0, 0, 1, -7.57052, 0);animation-play-state:paused" ></circle>
<circle cx="500.0919363434127" cy="622.4208223403755" r="95.67987791726962" fill="#d7e1fb" transform="matrix(1,0,0,1,-8.632266998291016,0)" style="transform:matrix(1, 0, 0, 1, -8.63227, 0);animation-play-state:paused" ></circle>
<circle cx="595.7718142606824" cy="651.0459777608288" r="49.01802454295789" fill="#d7e1fb" transform="matrix(1,0,0,1,-9.355050086975098,0)" style="transform:matrix(1, 0, 0, 1, -9.35505, 0);animation-play-state:paused" ></circle>
<circle cx="644.7898388036402" cy="648.6384447924164" r="72.42659840346441" fill="#d7e1fb" transform="matrix(1,0,0,1,-9.785362243652344,0)" style="transform:matrix(1, 0, 0, 1, -9.78536, 0);animation-play-state:paused" ></circle>
<circle cx="717.2164372071046" cy="659.1471653525972" r="53.346166156774714" fill="#d7e1fb" transform="matrix(1,0,0,1,-9.977882385253906,0)" style="transform:matrix(1, 0, 0, 1, -9.97788, 0);animation-play-state:paused" ></circle>
<circle cx="770.5626033638794" cy="663.197625716268" r="55.18771100310663" fill="#d7e1fb" transform="matrix(1,0,0,1,-9.977882385253906,0)" style="transform:matrix(1, 0, 0, 1, -9.97788, 0);animation-play-state:paused" ></circle>
<circle cx="825.750314366986" cy="666.1506974181771" r="70.12913182825369" fill="#d7e1fb" transform="matrix(1,0,0,1,-9.78536319732666,0)" style="transform:matrix(1, 0, 0, 1, -9.78536, 0);animation-play-state:paused" ></circle>
<circle cx="895.8794461952397" cy="660.8570105799572" r="53.392971570374954" fill="#d7e1fb" transform="matrix(1,0,0,1,-9.355049133300781,0)" style="transform:matrix(1, 0, 0, 1, -9.35505, 0);animation-play-state:paused" ></circle>
<circle cx="949.2724177656146" cy="657.5296771582507" r="48.960606061105636" fill="#d7e1fb" transform="matrix(1,0,0,1,-8.632266998291016,0)" style="transform:matrix(1, 0, 0, 1, -8.63227, 0);animation-play-state:paused" ></circle>
<circle cx="998.2330238267202" cy="642.7641538774203" r="91.35391983944872" fill="#d7e1fb" transform="matrix(1,0,0,1,-7.57051944732666,0)" style="transform:matrix(1, 0, 0, 1, -7.57052, 0);animation-play-state:paused" ></circle>
<circle cx="1089.586943666169" cy="641.1002463231687" r="64.84768050461653" fill="#d7e1fb" transform="matrix(1,0,0,1,-6.180026531219482,0)" style="transform:matrix(1, 0, 0, 1, -6.18003, 0);animation-play-state:paused" ></circle>
<circle cx="1154.4346241707856" cy="632.0920414217609" r="70.58059657701205" fill="#d7e1fb" transform="matrix(1,0,0,1,-4.600756645202637,0)" style="transform:matrix(1, 0, 0, 1, -4.60076, 0);animation-play-state:paused" ></circle>
<circle cx="1225.0152207477977" cy="633.4399788206629" r="56.102847855522654" fill="#d7e1fb" transform="matrix(1,0,0,1,-3.088648796081543,0)" style="transform:matrix(1, 0, 0, 1, -3.08865, 0);animation-play-state:paused" ></circle>
<circle cx="1281.1180686033204" cy="632.166990034786" r="51.18434687045348" fill="#d7e1fb" transform="matrix(1,0,0,1,-1.8546791076660156,0)" style="transform:matrix(1, 0, 0, 1, -1.85468, 0);animation-play-state:paused" ></circle>
<circle cx="1332.3024154737739" cy="641.7690260751853" r="33.38873414271242" fill="#d7e1fb" transform="matrix(1,0,0,1,-0.9663257598876953,0)" style="transform:matrix(1, 0, 0, 1, -0.966326, 0);animation-play-state:paused" ></circle>
<circle cx="1365.6911496164862" cy="639.5317803743476" r="34.13540082335709" fill="#d7e1fb" transform="matrix(1,0,0,1,-0.3967552185058594,0)" style="transform:matrix(1, 0, 0, 1, -0.396755, 0);animation-play-state:paused" ></circle>
<circle cx="1399.8265504398432" cy="628.8937934442579" r="44.57954595491363" fill="#d7e1fb" transform="matrix(1,0,0,1,-0.09182167053222656,0)" style="transform:matrix(1, 0, 0, 1, -0.0918217, 0);animation-play-state:paused" ></circle>
<circle cx="1444.4060963947568" cy="599.9222763327215" r="72.8924148467025" fill="#d7e1fb" transform="matrix(1,0,0,1,0,0)" style="transform:matrix(1, 0, 0, 1, 0, 0);animation-play-state:paused" ></circle>
<circle cx="1517.2985112414592" cy="579.2258216496584" r="85.44767964008726" fill="#d7e1fb" transform="matrix(1,0,0,1,-0.09182170033454895,0)" style="transform:matrix(1, 0, 0, 1, -0.0918217, 0);animation-play-state:paused" ></circle>
<circle cx="1602.7461908815465" cy="595.2849724007307" r="62.21725507150164" fill="#d7e1fb" transform="matrix(1,0,0,1,-0.3967548906803131,0)" style="transform:matrix(1, 0, 0, 1, -0.396755, 0);animation-play-state:paused" ></circle>
<circle cx="1664.963445953048" cy="561.0896054866098" r="85.13813381190309" fill="#d7e1fb" transform="matrix(1,0,0,1,-0.9663257002830505,0)" style="transform:matrix(1, 0, 0, 1, -0.966326, 0);animation-play-state:paused" ></circle>
<circle cx="0" cy="654.2651019546199" r="63.94574837115012" fill="#e8eafc" transform="matrix(1,0,0,1,0,0)" style="transform:matrix(1, 0, 0, 1, 0, 0);animation-play-state:paused" ></circle>
<circle cx="63.94574837115012" cy="670.2862370280142" r="54.888219309042015" fill="#e8eafc" transform="matrix(1,0,0,1,-0.14621886610984802,0)" style="transform:matrix(1, 0, 0, 1, -0.146219, 0);animation-play-state:paused" ></circle>
<circle cx="118.83396768019213" cy="665.7982773711802" r="63.57640344042265" fill="#e8eafc" transform="matrix(1,0,0,1,-0.6449503302574158,0)" style="transform:matrix(1, 0, 0, 1, -0.64495, 0);animation-play-state:paused" ></circle>
<circle cx="182.4103711206148" cy="662.5226105609912" r="73.45454788427108" fill="#e8eafc" transform="matrix(1,0,0,1,-1.600266933441162,0)" style="transform:matrix(1, 0, 0, 1, -1.60027, 0);animation-play-state:paused" ></circle>
<circle cx="255.86491900488588" cy="692.2188393652547" r="47.04062580209465" fill="#e8eafc" transform="matrix(1,0,0,1,-3.0886495113372803,0)" style="transform:matrix(1, 0, 0, 1, -3.08865, 0);animation-play-state:paused" ></circle>
<circle cx="302.9055448069805" cy="689.290665227965" r="55.21723762606584" fill="#e8eafc" transform="matrix(1,0,0,1,-5,0)" style="transform:matrix(1, 0, 0, 1, -5, 0);animation-play-state:paused" ></circle>
<circle cx="358.1227824330464" cy="692.2112784337912" r="57.52313252915798" fill="#e8eafc" transform="matrix(1,0,0,1,-6.911351203918457,0)" style="transform:matrix(1, 0, 0, 1, -6.91135, 0);animation-play-state:paused" ></circle>
<circle cx="415.64591496220436" cy="681.0581741091436" r="84.66473318280676" fill="#e8eafc" transform="matrix(1,0,0,1,-8.39973258972168,0)" style="transform:matrix(1, 0, 0, 1, -8.39973, 0);animation-play-state:paused" ></circle>
<circle cx="500.3106481450111" cy="691.3217075612748" r="85.2198743930073" fill="#e8eafc" transform="matrix(1,0,0,1,-9.355050086975098,0)" style="transform:matrix(1, 0, 0, 1, -9.35505, 0);animation-play-state:paused" ></circle>
<circle cx="585.5305225380184" cy="705.5484871579667" r="74.74622658697366" fill="#e8eafc" transform="matrix(1,0,0,1,-9.853780746459961,0)" style="transform:matrix(1, 0, 0, 1, -9.85378, 0);animation-play-state:paused" ></circle>
<circle cx="660.2767491249921" cy="712.6967155690803" r="79.30832398623362" fill="#e8eafc" transform="matrix(1,0,0,1,-10,0)" style="transform:matrix(1, 0, 0, 1, -10, 0);animation-play-state:paused" ></circle>
<circle cx="739.5850731112257" cy="724.6372190501314" r="55.63304356668084" fill="#e8eafc" transform="matrix(1,0,0,1,-9.853780746459961,0)" style="transform:matrix(1, 0, 0, 1, -9.85378, 0);animation-play-state:paused" ></circle>
<circle cx="795.2181166779066" cy="728.2930037182986" r="82.76415374101373" fill="#e8eafc" transform="matrix(1,0,0,1,-9.355049133300781,0)" style="transform:matrix(1, 0, 0, 1, -9.35505, 0);animation-play-state:paused" ></circle>
<circle cx="877.9822704189203" cy="725.7300678072017" r="59.358573702297576" fill="#e8eafc" transform="matrix(1,0,0,1,-8.399733543395996,0)" style="transform:matrix(1, 0, 0, 1, -8.39973, 0);animation-play-state:paused" ></circle>
<circle cx="937.3408441212179" cy="718.9713518431051" r="68.37832808150091" fill="#e8eafc" transform="matrix(1,0,0,1,-6.911350727081299,0)" style="transform:matrix(1, 0, 0, 1, -6.91135, 0);animation-play-state:paused" ></circle>
<circle cx="1005.7191722027187" cy="713.1141439670597" r="64.73697275279264" fill="#e8eafc" transform="matrix(1,0,0,1,-5,0)" style="transform:matrix(1, 0, 0, 1, -5, 0);animation-play-state:paused" ></circle>
<circle cx="1070.4561449555113" cy="706.5711500505925" r="65.790669093889" fill="#e8eafc" transform="matrix(1,0,0,1,-3.088648796081543,0)" style="transform:matrix(1, 0, 0, 1, -3.08865, 0);animation-play-state:paused" ></circle>
<circle cx="1136.2468140494002" cy="707.305766306915" r="50.641123273823496" fill="#e8eafc" transform="matrix(1,0,0,1,-1.600266456604004,0)" style="transform:matrix(1, 0, 0, 1, -1.60027, 0);animation-play-state:paused" ></circle>
<circle cx="1186.8879373232237" cy="694.3273224570312" r="67.63421068156457" fill="#e8eafc" transform="matrix(1,0,0,1,-0.6449508666992188,0)" style="transform:matrix(1, 0, 0, 1, -0.644951, 0);animation-play-state:paused" ></circle>
<circle cx="1254.5221480047883" cy="670.3806874420104" r="94.4961413710272" fill="#e8eafc" transform="matrix(1,0,0,1,-0.14621925354003906,0)" style="transform:matrix(1, 0, 0, 1, -0.146219, 0);animation-play-state:paused" ></circle>
<circle cx="1349.0182893758156" cy="657.1938028301417" r="94.59782067144369" fill="#e8eafc" transform="matrix(1,0,0,1,0,0)" style="transform:matrix(1, 0, 0, 1, 0, 0);animation-play-state:paused" ></circle>
<circle cx="1443.6161100472593" cy="672.0662691950246" r="64.12325679954009" fill="#e8eafc" transform="matrix(1,0,0,1,-0.14621886610984802,0)" style="transform:matrix(1, 0, 0, 1, -0.146219, 0);animation-play-state:paused" ></circle>
<circle cx="1507.7393668467994" cy="668.7295135670776" r="61.45950364468861" fill="#e8eafc" transform="matrix(1,0,0,1,-0.6449503302574158,0)" style="transform:matrix(1, 0, 0, 1, -0.64495, 0);animation-play-state:paused" ></circle>
<circle cx="1569.198870491488" cy="631.3173651134614" r="90.34042444689744" fill="#e8eafc" transform="matrix(1,0,0,1,-1.600266933441162,0)" style="transform:matrix(1, 0, 0, 1, -1.60027, 0);animation-play-state:paused" ></circle>
<circle cx="1659.5392949383854" cy="656.4459217651723" r="60.317809516470106" fill="#e8eafc" transform="matrix(1,0,0,1,-3.0886495113372803,0)" style="transform:matrix(1, 0, 0, 1, -3.08865, 0);animation-play-state:paused" ></circle>
<circle cx="0" cy="743.6777281932528" r="42.76855983895598" fill="#f5f4fd" transform="matrix(1,0,0,1,0,0)" style="transform:matrix(1, 0, 0, 1, 0, 0);animation-play-state:paused" ></circle>
<circle cx="42.76855983895598" cy="755.791369142355" r="34.47759880019608" fill="#f5f4fd" transform="matrix(1,0,0,1,-0.2146373838186264,0)" style="transform:matrix(1, 0, 0, 1, -0.214637, 0);animation-play-state:paused" ></circle>
<circle cx="77.24615863915206" cy="730.521391498224" r="59.33917473644354" fill="#f5f4fd" transform="matrix(1,0,0,1,-0.9663266539573669,0)" style="transform:matrix(1, 0, 0, 1, -0.966327, 0);animation-play-state:paused" ></circle>
<circle cx="136.5853333755956" cy="726.454701323939" r="68.57905551449157" fill="#f5f4fd" transform="matrix(1,0,0,1,-2.4294822216033936,0)" style="transform:matrix(1, 0, 0, 1, -2.42948, 0);animation-play-state:paused" ></circle>
<circle cx="205.1643888900872" cy="761.9347498195062" r="36.786528950409334" fill="#f5f4fd" transform="matrix(1,0,0,1,-4.600759983062744,0)" style="transform:matrix(1, 0, 0, 1, -4.60076, 0);animation-play-state:paused" ></circle>
<circle cx="241.95091784049652" cy="766.3658999344065" r="33.8928186567407" fill="#f5f4fd" transform="matrix(1,0,0,1,-6.911355018615723,0)" style="transform:matrix(1, 0, 0, 1, -6.91135, 0);animation-play-state:paused" ></circle>
<circle cx="275.8437364972372" cy="763.4920440259924" r="39.628074950125935" fill="#f5f4fd" transform="matrix(1,0,0,1,-8.632269859313965,0)" style="transform:matrix(1, 0, 0, 1, -8.63227, 0);animation-play-state:paused" ></circle>
<circle cx="315.47181144736317" cy="727.8774447495224" r="91.08500639420457" fill="#f5f4fd" transform="matrix(1,0,0,1,-9.603246688842773,0)" style="transform:matrix(1, 0, 0, 1, -9.60325, 0);animation-play-state:paused" ></circle>
<circle cx="406.55681784156775" cy="753.5083722343609" r="68.78364854936099" fill="#f5f4fd" transform="matrix(1,0,0,1,-9.977882385253906,0)" style="transform:matrix(1, 0, 0, 1, -9.97788, 0);animation-play-state:paused" ></circle>
<circle cx="475.3404663909287" cy="762.6343286877524" r="64.44103237135154" fill="#f5f4fd" transform="matrix(1,0,0,1,-9.908177375793457,0)" style="transform:matrix(1, 0, 0, 1, -9.90818, 0);animation-play-state:paused" ></circle>
<circle cx="539.7814987622803" cy="764.7073612812125" r="74.30855357205523" fill="#f5f4fd" transform="matrix(1,0,0,1,-9.355046272277832,0)" style="transform:matrix(1, 0, 0, 1, -9.35505, 0);animation-play-state:paused" ></circle>
<circle cx="614.0900523343355" cy="772.5222710742661" r="75.28123873187079" fill="#f5f4fd" transform="matrix(1,0,0,1,-8.14531421661377,0)" style="transform:matrix(1, 0, 0, 1, -8.14531, 0);animation-play-state:paused" ></circle>
<circle cx="689.3712910662063" cy="786.4271334418754" r="45.581239296964725" fill="#f5f4fd" transform="matrix(1,0,0,1,-6.180017471313477,0)" style="transform:matrix(1, 0, 0, 1, -6.18002, 0);animation-play-state:paused" ></circle>
<circle cx="734.952530363171" cy="786.4390816869648" r="70.65177922974397" fill="#f5f4fd" transform="matrix(1,0,0,1,-3.8199596405029297,0)" style="transform:matrix(1, 0, 0, 1, -3.81996, 0);animation-play-state:paused" ></circle>
<circle cx="805.604309592915" cy="793.6683900099931" r="76.25949185361337" fill="#f5f4fd" transform="matrix(1,0,0,1,-1.8546695709228516,0)" style="transform:matrix(1, 0, 0, 1, -1.85467, 0);animation-play-state:paused" ></circle>
<circle cx="881.8638014465283" cy="788.670658621034" r="66.99206258043641" fill="#f5f4fd" transform="matrix(1,0,0,1,-0.6449451446533203,0)" style="transform:matrix(1, 0, 0, 1, -0.644945, 0);animation-play-state:paused" ></circle>
<circle cx="948.8558640269647" cy="785.1025269029338" r="51.33119558326088" fill="#f5f4fd" transform="matrix(1,0,0,1,-0.09181976318359375,0)" style="transform:matrix(1, 0, 0, 1, -0.0918198, 0);animation-play-state:paused" ></circle>
<circle cx="1000.1870596102256" cy="786.1439516427047" r="33.024686895063226" fill="#f5f4fd" transform="matrix(1,0,0,1,-0.022118574008345604,0)" style="transform:matrix(1, 0, 0, 1, -0.0221186, 0);animation-play-state:paused" ></circle>
<circle cx="1033.2117465052888" cy="769.0671673132318" r="81.89976927115404" fill="#f5f4fd" transform="matrix(1,0,0,1,-0.3967595100402832,0)" style="transform:matrix(1, 0, 0, 1, -0.39676, 0);animation-play-state:paused" ></circle>
<circle cx="1115.111515776443" cy="771.1652427736608" r="54.55914001876424" fill="#f5f4fd" transform="matrix(1,0,0,1,-1.367743968963623,0)" style="transform:matrix(1, 0, 0, 1, -1.36774, 0);animation-play-state:paused" ></circle>
<circle cx="1169.6706557952073" cy="776.7924347267907" r="35.22128728858924" fill="#f5f4fd" transform="matrix(1,0,0,1,-3.0886662006378174,0)" style="transform:matrix(1, 0, 0, 1, -3.08867, 0);animation-play-state:paused" ></circle>
<circle cx="1204.8919430837966" cy="775.5111460336338" r="34.27221965149408" fill="#f5f4fd" transform="matrix(1,0,0,1,-5.399263381958008,0)" style="transform:matrix(1, 0, 0, 1, -5.39926, 0);animation-play-state:paused" ></circle>
<circle cx="1239.1641627352906" cy="771.5759794899851" r="37.84436853474165" fill="#f5f4fd" transform="matrix(1,0,0,1,-7.570536136627197,0)" style="transform:matrix(1, 0, 0, 1, -7.57054, 0);animation-play-state:paused" ></circle>
<circle cx="1277.008531270032" cy="767.0297697507237" r="41.467607368799605" fill="#f5f4fd" transform="matrix(1,0,0,1,-9.033683776855469,0)" style="transform:matrix(1, 0, 0, 1, -9.03368, 0);animation-play-state:paused" ></circle>
<circle cx="1318.4761386388318" cy="760.9103522554162" r="46.3566440291884" fill="#f5f4fd" transform="matrix(1,0,0,1,-9.785367012023926,0)" style="transform:matrix(1, 0, 0, 1, -9.78537, 0);animation-play-state:paused" ></circle>
<circle cx="1364.8327826680202" cy="728.0436062818104" r="83.33877426118559" fill="#f5f4fd" transform="matrix(1,0,0,1,-10,0)" style="transform:matrix(1, 0, 0, 1, -10, 0);animation-play-state:paused" ></circle>
<circle cx="1448.1715569292057" cy="729.0106967116496" r="71.28149727265249" fill="#f5f4fd" transform="matrix(1,0,0,1,-9.785358428955078,0)" style="transform:matrix(1, 0, 0, 1, -9.78536, 0);animation-play-state:paused" ></circle>
<circle cx="1519.4530542018583" cy="697.1715925193831" r="94.94310509404123" fill="#f5f4fd" transform="matrix(1,0,0,1,-9.033662796020508,0)" style="transform:matrix(1, 0, 0, 1, -9.03366, 0);animation-play-state:paused" ></circle>
<circle cx="1614.3961592958995" cy="736.8265649753455" r="49.73126316176719" fill="#f5f4fd" transform="matrix(1,0,0,1,-7.570499420166016,0)" style="transform:matrix(1, 0, 0, 1, -7.5705, 0);animation-play-state:paused" ></circle>
<circle cx="1664.1274224576666" cy="724.4066960301377" r="56.803839627428786" fill="#f5f4fd" transform="matrix(1,0,0,1,-5.399214744567871,0)" style="transform:matrix(1, 0, 0, 1, -5.39921, 0);animation-play-state:paused" ></circle>
<circle cx="0" cy="748.5087462354494" r="92.07604480379216" fill="#ffffff" transform="matrix(1,0,0,1,0,0)" style="transform:matrix(1, 0, 0, 1, 0, 0);animation-play-state:paused" ></circle>
<circle cx="92.07604480379216" cy="770.789076999755" r="82.83940840864997" fill="#ffffff" transform="matrix(1,0,0,1,-0.297871857881546,0)" style="transform:matrix(1, 0, 0, 1, -0.297872, 0);animation-play-state:paused" ></circle>
<circle cx="174.91545321244212" cy="813.0027197990461" r="48.76501822764753" fill="#ffffff" transform="matrix(1,0,0,1,-1.3677345514297485,0)" style="transform:matrix(1, 0, 0, 1, -1.36773, 0);animation-play-state:paused" ></circle>
<circle cx="223.68047144008966" cy="788.3122793764088" r="81.09536207339974" fill="#ffffff" transform="matrix(1,0,0,1,-3.4464633464813232,0)" style="transform:matrix(1, 0, 0, 1, -3.44646, 0);animation-play-state:paused" ></circle>
<circle cx="304.7758335134894" cy="832.6536743520222" r="35.00602374699473" fill="#ffffff" transform="matrix(1,0,0,1,-6.1800312995910645,0)" style="transform:matrix(1, 0, 0, 1, -6.18003, 0);animation-play-state:paused" ></circle>
<circle cx="339.7818572604841" cy="801.0170063756563" r="82.68665322205003" fill="#ffffff" transform="matrix(1,0,0,1,-8.399735450744629,0)" style="transform:matrix(1, 0, 0, 1, -8.39973, 0);animation-play-state:paused" ></circle>
<circle cx="422.46851048253416" cy="809.3407853330867" r="85.63960314444482" fill="#ffffff" transform="matrix(1,0,0,1,-9.603246688842773,0)" style="transform:matrix(1, 0, 0, 1, -9.60325, 0);animation-play-state:paused" ></circle>
<circle cx="508.108113626979" cy="823.21744122242" r="78.78961679633778" fill="#ffffff" transform="matrix(1,0,0,1,-9.9945707321167,0)" style="transform:matrix(1, 0, 0, 1, -9.99457, 0);animation-play-state:paused" ></circle>
<circle cx="586.8977304233167" cy="841.8603783814367" r="50.634225105765765" fill="#ffffff" transform="matrix(1,0,0,1,-9.785361289978027,0)" style="transform:matrix(1, 0, 0, 1, -9.78536, 0);animation-play-state:paused" ></circle>
<circle cx="637.5319555290824" cy="846.7464675694301" r="46.384451155575476" fill="#ffffff" transform="matrix(1,0,0,1,-8.843363761901855,0)" style="transform:matrix(1, 0, 0, 1, -8.84336, 0);animation-play-state:paused" ></circle>
<circle cx="683.9164066846579" cy="849.2818100305511" r="49.56085363760495" fill="#ffffff" transform="matrix(1,0,0,1,-6.911342620849609,0)" style="transform:matrix(1, 0, 0, 1, -6.91134, 0);animation-play-state:paused" ></circle>
<circle cx="733.4772603222629" cy="852.174987183794" r="55.33668622176921" fill="#ffffff" transform="matrix(1,0,0,1,-4.205990791320801,0)" style="transform:matrix(1, 0, 0, 1, -4.20599, 0);animation-play-state:paused" ></circle>
<circle cx="788.8139465440321" cy="855.5243315295885" r="82.54182294899245" fill="#ffffff" transform="matrix(1,0,0,1,-1.8546714782714844,0)" style="transform:matrix(1, 0, 0, 1, -1.85467, 0);animation-play-state:paused" ></circle>
<circle cx="871.3557694930246" cy="855.6556448549288" r="42.30451006506931" fill="#ffffff" transform="matrix(1,0,0,1,-0.5121488571166992,0)" style="transform:matrix(1, 0, 0, 1, -0.512149, 0);animation-play-state:paused" ></circle>
<circle cx="913.6602795580939" cy="849.0497203046034" r="70.49301513722988" fill="#ffffff" transform="matrix(1,0,0,1,-0.022116661071777344,0)" style="transform:matrix(1, 0, 0, 1, -0.0221167, 0);animation-play-state:paused" ></circle>
<circle cx="984.1532946953238" cy="841.9577850697884" r="69.66564292912494" fill="#ffffff" transform="matrix(1,0,0,1,-0.14622078835964203,0)" style="transform:matrix(1, 0, 0, 1, -0.146221, 0);animation-play-state:paused" ></circle>
<circle cx="1053.8189376244486" cy="835.014819058724" r="69.14344098064272" fill="#ffffff" transform="matrix(1,0,0,1,-0.9663317203521729,0)" style="transform:matrix(1, 0, 0, 1, -0.966332, 0);animation-play-state:paused" ></circle>
<circle cx="1122.9623786050913" cy="820.7932971279458" r="85.20956476030355" fill="#ffffff" transform="matrix(1,0,0,1,-2.749058246612549,0)" style="transform:matrix(1, 0, 0, 1, -2.74906, 0);animation-play-state:paused" ></circle>
<circle cx="1208.1719433653948" cy="839.1223856376105" r="34.66239389428691" fill="#ffffff" transform="matrix(1,0,0,1,-5.399258613586426,0)" style="transform:matrix(1, 0, 0, 1, -5.39926, 0);animation-play-state:paused" ></circle>
<circle cx="1242.8343372596817" cy="825.0826650327228" r="54.324756837937684" fill="#ffffff" transform="matrix(1,0,0,1,-7.868867874145508,0)" style="transform:matrix(1, 0, 0, 1, -7.86887, 0);animation-play-state:paused" ></circle>
<circle cx="1297.1590940976193" cy="807.4031224513716" r="73.28198977678383" fill="#ffffff" transform="matrix(1,0,0,1,-9.355055809020996,0)" style="transform:matrix(1, 0, 0, 1, -9.35506, 0);animation-play-state:paused" ></circle>
<circle cx="1370.4410838744031" cy="806.4249865640488" r="64.77494428932187" fill="#ffffff" transform="matrix(1,0,0,1,-9.949310302734375,0)" style="transform:matrix(1, 0, 0, 1, -9.94931, 0);animation-play-state:paused" ></circle>
<circle cx="1435.216028163725" cy="788.420269966907" r="77.83906988455284" fill="#ffffff" transform="matrix(1,0,0,1,-9.90817642211914,0)" style="transform:matrix(1, 0, 0, 1, -9.90818, 0);animation-play-state:paused" ></circle>
<circle cx="1513.0550980482778" cy="819.0443338755127" r="39.133919977993855" fill="#ffffff" transform="matrix(1,0,0,1,-9.20394515991211,0)" style="transform:matrix(1, 0, 0, 1, -9.20394, 0);animation-play-state:paused" ></circle>
<circle cx="1552.1890180262717" cy="812.6104671693088" r="43.01530098518268" fill="#ffffff" transform="matrix(1,0,0,1,-7.570505142211914,0)" style="transform:matrix(1, 0, 0, 1, -7.57051, 0);animation-play-state:paused" ></circle>
<circle cx="1595.2043190114543" cy="763.5856661728898" r="83.58062740649571" fill="#ffffff" transform="matrix(1,0,0,1,-4.999978542327881,0)" style="transform:matrix(1, 0, 0, 1, -4.99998, 0);animation-play-state:paused" ></circle>
<circle cx="1678.78494641795" cy="761.9029208986573" r="76.80081419383227" fill="#ffffff" transform="matrix(1,0,0,1,-2.4294638633728027,0)" style="transform:matrix(1, 0, 0, 1, -2.42946, 0);animation-play-state:paused" ></circle></g></svg>